<svg width="847" height="520" xmlns="http://www.w3.org/2000/svg" version="1.1"><g transform="translate(0, 10)"><g class="links" fill="none" stroke-opacity="0.4"><path d="M5,489.738439256526C423.5,489.738439256526,423.5,408.17976481947653,842,408.17976481947653" stroke-width="0.07069209283078727" style="stroke: rgb(191, 105, 105);"></path><path d="M5,489.68188558226143C423.5,489.68188558226143,423.5,372.43370461050375,842,372.43370461050375" stroke-width="0.04241525569847236" style="stroke: rgb(191, 105, 105);"></path><path d="M5,489.5334321873167C423.5,489.5334321873167,423.5,285.6367460946927,842,285.6367460946927" stroke-width="0.14138418566157454" style="stroke: rgb(191, 105, 105);"></path><path d="M5,489.1516948860305C423.5,489.1516948860305,423.5,119.04548432704587,842,119.04548432704587" stroke-width="0.11310734852925963" style="stroke: rgb(191, 105, 105);"></path><path d="M5,489.8091313493568C423.5,489.8091313493568,423.5,471.0474499120658,842,471.0474499120658" stroke-width="0.014138418566157454" style="stroke: rgb(191, 105, 105);"></path><path d="M5,489.6324011172798C423.5,489.6324011172798,423.5,331.039346184351,842,331.039346184351" stroke-width="0.056553674264629816" style="stroke: rgb(191, 105, 105);"></path><path d="M5,489.7879237215076C423.5,489.7879237215076,423.5,441.03451843167,842,441.03451843167" stroke-width="0.028276837132314908" style="stroke: rgb(191, 105, 105);"></path><path d="M5,489.82326976792297C423.5,489.82326976792297,423.5,499.9929307907169,842,499.9929307907169" stroke-width="0.014138418566157454" style="stroke: rgb(191, 105, 105);"></path><path d="M5,489.377909583089C423.5,489.377909583089,423.5,232.5852615607435,842,232.5852615607435" stroke-width="0.16966102279388945" style="stroke: rgb(191, 105, 105);"></path><path d="M5,489.25066381599356C423.5,489.25066381599356,423.5,177.32818373047354,842,177.32818373047354" stroke-width="0.08483051139694472" style="stroke: rgb(191, 105, 105);"></path><path d="M5,289.9406876099177C423.5,289.9406876099177,423.5,397.5264664298769,842,397.5264664298769" stroke-width="6.2209041691092795" style="stroke: rgb(191, 156, 105);"></path><path d="M5,284.5963653919101C423.5,284.5963653919101,423.5,362.10558984792567,842,362.10558984792567" stroke-width="4.467740266905755" style="stroke: rgb(191, 156, 105);"></path><path d="M5,271.73747370599C423.5,271.73747370599,423.5,267.92837684058054,842,267.92837684058054" stroke-width="7.168178213041829" style="stroke: rgb(191, 156, 105);"></path><path d="M5,231.59143418738591C423.5,231.59143418738591,423.5,71.76661264181533,842,71.76661264181533" stroke-width="31.92454912238353" style="stroke: rgb(191, 156, 105);"></path><path d="M5,299.4487740956586C423.5,299.4487740956586,423.5,463.6247801648331,842,463.6247801648331" stroke-width="2.7287147832683885" style="stroke: rgb(191, 156, 105);"></path><path d="M5,278.8420290354841C423.5,278.8420290354841,423.5,318.71064519466177,842,318.71064519466177" stroke-width="7.040932445946412" style="stroke: rgb(191, 156, 105);"></path><path d="M5,295.5677781992484C423.5,295.5677781992484,423.5,431.787992689403,842,431.787992689403" stroke-width="5.033277009552053" style="stroke: rgb(191, 156, 105);"></path><path d="M5,303.21666264353956C423.5,303.21666264353956,423.5,492.6197455084657,842,492.6197455084657" stroke-width="4.807062312493534" style="stroke: rgb(191, 156, 105);"></path><path d="M5,263.8270285182249C423.5,263.8270285182249,423.5,214.68602365598815,842,214.68602365598815" stroke-width="8.652712162488362" style="stroke: rgb(191, 156, 105);"></path><path d="M5,253.5271905927792C423.5,253.5271905927792,423.5,158.72909410669337,842,158.72909410669337" stroke-width="11.946963688403049" style="stroke: rgb(191, 156, 105);"></path><path d="M5,386.60626228490656C423.5,386.60626228490656,423.5,404.0654850167248,842,404.0654850167248" stroke-width="2.4176695748129244" style="stroke: rgb(174, 191, 105);"></path><path d="M5,384.17445429152747C423.5,384.17445429152747,423.5,368.1214869478257,842,368.1214869478257" stroke-width="2.4459464119452394" style="stroke: rgb(174, 191, 105);"></path><path d="M5,377.402151798338C423.5,377.402151798338,423.5,278.06562295251535,842,278.06562295251535" stroke-width="5.415014310838305" style="stroke: rgb(174, 191, 105);"></path><path d="M5,363.82926997482684C423.5,363.82926997482684,423.5,100.94123935308123,842,100.94123935308123" stroke-width="8.38408220973137" style="stroke: rgb(174, 191, 105);"></path><path d="M5,390.9255491568676C423.5,390.9255491568676,423.5,467.95820545536037,842,467.95820545536037" stroke-width="2.431807993379082" style="stroke: rgb(174, 191, 105);"></path><path d="M5,381.53057001965607C423.5,381.53057001965607,423.5,326.33832201110374,842,326.33832201110374" stroke-width="2.8418221317976484" style="stroke: rgb(174, 191, 105);"></path><path d="M5,388.76237111624556C423.5,388.76237111624556,423.5,437.3868064416014,842,437.3868064416014" stroke-width="1.8945480878650989" style="stroke: rgb(174, 191, 105);"></path><path d="M5,392.6999206869204C423.5,392.6999206869204,423.5,497.1652470774854,842,497.1652470774854" stroke-width="1.1169350667264388" style="stroke: rgb(174, 191, 105);"></path><path d="M5,372.8283733921861C423.5,372.8283733921861,423.5,225.21914548777548,842,225.21914548777548" stroke-width="3.7325425014655678" style="stroke: rgb(174, 191, 105);"></path><path d="M5,369.4917066105729C423.5,369.4917066105729,423.5,170.04689816890243,842,170.04689816890243" stroke-width="2.9407910617607502" style="stroke: rgb(174, 191, 105);"></path><path d="M5,425.0315528121662C423.5,425.0315528121662,423.5,406.0802096624022,842,406.0802096624022" stroke-width="1.6117797165419498" style="stroke: rgb(122, 191, 105);"></path><path d="M5,423.18648918928267C423.5,423.18648918928267,423.5,370.3836339184109,842,370.3836339184109" stroke-width="2.078347529225146" style="stroke: rgb(122, 191, 105);"></path><path d="M5,418.49253422531837C423.5,418.49253422531837,423.5,282.3495637780611,842,282.3495637780611" stroke-width="3.1528673402531124" style="stroke: rgb(122, 191, 105);"></path><path d="M5,406.97679230318306C423.5,406.97679230318306,423.5,108.85168454084634,842,108.85168454084634" stroke-width="7.436808165798821" style="stroke: rgb(122, 191, 105);"></path><path d="M5,428.13493568743775C423.5,428.13493568743775,423.5,469.80326907824394,842,469.80326907824394" stroke-width="1.2583192523880133" style="stroke: rgb(122, 191, 105);"></path><path d="M5,421.1081416600575C423.5,421.1081416600575,423.5,328.79840684161513,842,328.79840684161513" stroke-width="2.078347529225146" style="stroke: rgb(122, 191, 105);"></path><path d="M5,426.6716093658404C423.5,426.6716093658404,423.5,439.16824718093716,842,439.16824718093716" stroke-width="1.6683333908065796" style="stroke: rgb(122, 191, 105);"></path><path d="M5,429.38618573054265C423.5,429.38618573054265,423.5,498.3458050277595,842,498.3458050277595" stroke-width="1.244180833821856" style="stroke: rgb(122, 191, 105);"></path><path d="M5,415.36087451291445C423.5,415.36087451291445,423.5,228.64064278078558,842,228.64064278078558" stroke-width="3.1104520845546397" style="stroke: rgb(122, 191, 105);"></path><path d="M5,412.2504224283598C423.5,412.2504224283598,423.5,173.07251974206014,842,173.07251974206014" stroke-width="3.1104520845546397" style="stroke: rgb(122, 191, 105);"></path><path d="M5,499.9646539535845C423.5,499.9646539535845,423.5,408.222180075175,842,408.222180075175" stroke-width="0.014138418566157454" style="stroke: rgb(105, 191, 139);"></path><path d="M5,499.9505155350183C423.5,499.9505155350183,423.5,372.46198144763605,842,372.46198144763605" stroke-width="0.014138418566157454" style="stroke: rgb(105, 191, 139);"></path><path d="M5,499.92223869788603C423.5,499.92223869788603,423.5,285.7286458153728,842,285.7286458153728" stroke-width="0.04241525569847236" style="stroke: rgb(105, 191, 139);"></path><path d="M5,499.85154660505526C423.5,499.85154660505526,423.5,119.12324562915973,842,119.12324562915973" stroke-width="0.04241525569847236" style="stroke: rgb(105, 191, 139);"></path><path d="M5,499.99293079071685C423.5,499.99293079071685,423.5,471.061588330632,842,471.061588330632" stroke-width="0.014138418566157454" style="stroke: rgb(105, 191, 139);"></path><path d="M5,499.94344632573524C423.5,499.94344632573524,423.5,331.06762302148337,842,331.06762302148337" stroke-width="0" style="stroke: rgb(105, 191, 139);"></path><path d="M5,499.9787923721507C423.5,499.9787923721507,423.5,441.0557260595192,842,441.0557260595192" stroke-width="0.014138418566157454" style="stroke: rgb(105, 191, 139);"></path><path d="M5,499.99999999999994C423.5,499.99999999999994,423.5,500,842,500" stroke-width="0" style="stroke: rgb(105, 191, 139);"></path><path d="M5,499.88689265147065C423.5,499.88689265147065,423.5,232.6842304907066,842,232.6842304907066" stroke-width="0.028276837132314908" style="stroke: rgb(105, 191, 139);"></path><path d="M5,499.87275423290447C423.5,499.87275423290447,423.5,177.370598986172,842,177.370598986172" stroke-width="0" style="stroke: rgb(105, 191, 139);"></path><path d="M5,168.26838856512308C423.5,168.26838856512308,423.5,388.4425325011207,842,388.4425325011207" stroke-width="11.946963688403049" style="stroke: rgb(105, 191, 191);"></path><path d="M5,152.89285837442682C423.5,152.89285837442682,423.5,350.46967136797815,842,350.46967136797815" stroke-width="18.804096692989415" style="stroke: rgb(105, 191, 191);"></path><path d="M5,113.2275250870721C423.5,113.2275250870721,423.5,253.52132832166606,842,253.52132832166606" stroke-width="21.645918824787064" style="stroke: rgb(105, 191, 191);"></path><path d="M5,27.90216904031185C423.5,27.90216904031185,423.5,27.902169040311822,842,27.902169040311822" stroke-width="55.804338080623474" style="stroke: rgb(105, 191, 191);"></path><path d="M5,190.8827890616919C423.5,190.8827890616919,423.5,456.6616090210006,842,456.6616090210006" stroke-width="11.197627504396703" style="stroke: rgb(105, 191, 191);"></path><path d="M5,133.77064726369886C423.5,133.77064726369886,423.5,305.47001620745533,842,305.47001620745533" stroke-width="19.4403255284665" style="stroke: rgb(105, 191, 191);"></path><path d="M5,179.7629228594091C423.5,179.7629228594091,423.5,423.75030173454246,842,423.75030173454246" stroke-width="11.042104900168972" style="stroke: rgb(105, 191, 191);"></path><path d="M5,201.05538122004222C423.5,201.05538122004222,423.5,485.642435946067,842,485.642435946067" stroke-width="9.147556812303872" style="stroke: rgb(105, 191, 191);"></path><path d="M5,90.91003138039255C423.5,90.91003138039255,423.5,198.86513328045797,842,198.86513328045797" stroke-width="22.98906858857202" style="stroke: rgb(105, 191, 191);"></path><path d="M5,67.60991758336506C423.5,67.60991758336506,423.5,140.95003275975034,842,140.95003275975034" stroke-width="23.61115900548295" style="stroke: rgb(105, 191, 191);"></path><path d="M5,447.04213938411664C423.5,447.04213938411664,423.5,407.16179868271325,842,407.16179868271325" stroke-width="0.5513983240801407" style="stroke: rgb(105, 139, 191);"></path><path d="M5,446.5119486878857C423.5,446.5119486878857,423.5,371.6772992172143,842,371.6772992172143" stroke-width="0.5089830683816683" style="stroke: rgb(105, 139, 191);"></path><path d="M5,445.28190627263007C423.5,445.28190627263007,423.5,284.3218731680401,842,284.3218731680401" stroke-width="0.7917514397048174" style="stroke: rgb(105, 139, 191);"></path><path d="M5,441.415048794786C423.5,441.415048794786,423.5,113.97686127107842,842,113.97686127107842" stroke-width="2.8135452946653334" style="stroke: rgb(105, 139, 191);"></path><path d="M5,447.98234421876606C423.5,447.98234421876606,423.5,470.5455360529672,842,470.5455360529672" stroke-width="0.22621469705851927" style="stroke: rgb(105, 139, 191);"></path><path d="M5,445.96761957308865C423.5,445.96761957308865,423.5,330.1274181868339,842,330.1274181868339" stroke-width="0.5796751612124557" style="stroke: rgb(105, 139, 191);"></path><path d="M5,447.5935377081968C423.5,447.5935377081968,423.5,440.2781130383806,842,440.2781130383806" stroke-width="0.5513983240801407" style="stroke: rgb(105, 139, 191);"></path><path d="M5,448.33580468292C423.5,448.33580468292,423.5,499.20824856029515,842,499.20824856029515" stroke-width="0.4807062312493534" style="stroke: rgb(105, 139, 191);"></path><path d="M5,444.39825511224524C423.5,444.39825511224524,423.5,230.68364426359534,842,230.68364426359534" stroke-width="0.9755508810648643" style="stroke: rgb(105, 139, 191);"></path><path d="M5,443.3661505569157C423.5,443.3661505569157,423.5,175.17207489913451,842,175.17207489913451" stroke-width="1.088658229594124" style="stroke: rgb(105, 139, 191);"></path><path d="M5,343.0557950274149C423.5,343.0557950274149,423.5,401.7467843718749,842,401.7467843718749" stroke-width="2.2197317148867204" style="stroke: rgb(122, 105, 191);"></path><path d="M5,340.66640228973426C423.5,340.66640228973426,423.5,365.61898686161584,842,365.61898686161584" stroke-width="2.5590537604744994" style="stroke: rgb(122, 105, 191);"></path><path d="M5,334.7777509569297C423.5,334.7777509569297,423.5,273.43529087209885,842,273.43529087209885" stroke-width="3.8456498499948273" style="stroke: rgb(122, 105, 191);"></path><path d="M5,320.13034932239054C423.5,320.13034932239054,423.5,92.23904272561131,842,92.23904272561131" stroke-width="9.020311045208455" style="stroke: rgb(122, 105, 191);"></path><path d="M5,347.1771440394498C423.5,347.1771440394498,423.5,465.86571950756905,842,465.86571950756905" stroke-width="1.7531639022035244" style="stroke: rgb(122, 105, 191);"></path><path d="M5,338.043725645712C423.5,338.043725645712,423.5,323.5742611814199,842,323.5742611814199" stroke-width="2.686299527569916" style="stroke: rgb(122, 105, 191);"></path><path d="M5,345.23311148660315C423.5,345.23311148660315,423.5,435.3720817959239,842,435.3720817959239" stroke-width="2.1349012034897754" style="stroke: rgb(122, 105, 191);"></path><path d="M5,348.8454774302564C423.5,348.8454774302564,423.5,495.8150281044173,842,495.8150281044173" stroke-width="1.5835028794096349" style="stroke: rgb(122, 105, 191);"></path><path d="M5,330.6846787820271C423.5,330.6846787820271,423.5,221.18262698713752,842,221.18262698713752" stroke-width="4.3404944998103385" style="stroke: rgb(122, 105, 191);"></path><path d="M5,326.5774681885583C423.5,326.5774681885583,423.5,166.63953929445847,842,166.63953929445847" stroke-width="3.8739266871271423" style="stroke: rgb(122, 105, 191);"></path><path d="M5,478.4942584227041C423.5,478.4942584227041,423.5,408.0242422152488,842,408.0242422152488" stroke-width="0.2403531156246767" style="stroke: rgb(174, 105, 191);"></path><path d="M5,478.24683609779635C423.5,478.24683609779635,423.5,372.2852512155591,842,372.2852512155591" stroke-width="0.25449153419083415" style="stroke: rgb(174, 105, 191);"></path><path d="M5,477.7802682851132C423.5,477.7802682851132,423.5,285.46708507189885,842,285.46708507189885" stroke-width="0.19793785992620436" style="stroke: rgb(174, 105, 191);"></path><path d="M5,476.0200351736266C423.5,476.0200351736266,423.5,118.38804786371954,842,118.38804786371954" stroke-width="1.2017655781233836" style="stroke: rgb(174, 105, 191);"></path><path d="M5,478.8618573054242C423.5,478.8618573054242,423.5,470.97675781923505,842,470.97675781923505" stroke-width="0.12724576709541707" style="stroke: rgb(174, 105, 191);"></path><path d="M5,477.9994137728886C423.5,477.9994137728886,423.5,330.8908927894064,842,330.8908927894064" stroke-width="0.2403531156246767" style="stroke: rgb(174, 105, 191);"></path><path d="M5,478.70633470119645C423.5,478.70633470119645,423.5,440.9284802924238,842,440.9284802924238" stroke-width="0.1837994413600469" style="stroke: rgb(174, 105, 191);"></path><path d="M5,479.01031070036885C423.5,479.01031070036885,423.5,499.9010310700369,842,499.9010310700369" stroke-width="0.16966102279388945" style="stroke: rgb(174, 105, 191);"></path><path d="M5,477.46215386737464C423.5,477.46215386737464,423.5,232.28128556157114,842,232.28128556157114" stroke-width="0.4382909755508811" style="stroke: rgb(174, 105, 191);"></path><path d="M5,476.93196317114376C423.5,476.93196317114376,423.5,176.9747232663196,842,176.9747232663196" stroke-width="0.622090416910928" style="stroke: rgb(174, 105, 191);"></path><path d="M5,464.28100968998933C423.5,464.28100968998933,423.5,407.6707817510949,842,407.6707817510949" stroke-width="0.46656781268319597" style="stroke: rgb(191, 105, 156);"></path><path d="M5,463.9346184351184C423.5,463.9346184351184,423.5,372.04489809993436,842,372.04489809993436" stroke-width="0.22621469705851927" style="stroke: rgb(191, 105, 156);"></path><path d="M5,463.14286699541356C423.5,463.14286699541356,423.5,285.04293251491407,842,285.04293251491407" stroke-width="0.6503672540432429" style="stroke: rgb(191, 105, 156);"></path><path d="M5,459.7779233766681C423.5,459.7779233766681,423.5,116.58539949653446,842,116.58539949653446" stroke-width="2.403531156246767" style="stroke: rgb(191, 105, 156);"></path><path d="M5,464.92430773474945C423.5,464.92430773474945,423.5,470.7858891685919,842,470.7858891685919" stroke-width="0.25449153419083415" style="stroke: rgb(191, 105, 156);"></path><path d="M5,463.6447808545122C423.5,463.6447808545122,423.5,330.5939859995171,842,330.5939859995171" stroke-width="0.35346046415393634" style="stroke: rgb(191, 105, 156);"></path><path d="M5,464.6556777819925C423.5,464.6556777819925,423.5,440.6951963860822,842,440.6951963860822" stroke-width="0.2827683713231491" style="stroke: rgb(191, 105, 156);"></path><path d="M5,465.23535294320493C423.5,465.23535294320493,423.5,499.6324011172799,842,499.6324011172799" stroke-width="0.3675988827200938" style="stroke: rgb(191, 105, 156);"></path><path d="M5,462.372323183558C423.5,462.372323183558,423.5,231.61677988896173,842,231.61677988896173" stroke-width="0.8907203696679196" style="stroke: rgb(191, 105, 156);"></path><path d="M5,461.45332597675775C423.5,461.45332597675775,423.5,176.19004103589788,842,176.19004103589788" stroke-width="0.9472740439325494" style="stroke: rgb(191, 105, 156);"></path></g><g class="nodes" font-family="Arial, Helvetica" font-size="10"><g><rect x="842" y="382.4690506569192" height="25.760198627538784" width="5" fill="#000"></rect><text x="836" y="395.3491499706886" dy="0.35em" text-anchor="end">Anesthesiology</text></g><g><rect x="842" y="341.0676230214834" height="31.401427635435766" width="5" fill="#000"></rect><text x="836" y="356.7683368392013" dy="0.35em" text-anchor="end">Emergency Medicine</text></g><g><rect x="842" y="242.69836890927252" height="43.051484533949576" width="5" fill="#000"></rect><text x="836" y="264.22411117624733" dy="0.35em" text-anchor="end">Family Medicine</text></g><g><rect x="842" y="8.526512829121202e-14" height="119.14445325700879" width="5" fill="#000"></rect><text x="836" y="59.57222662850448" dy="0.35em" text-anchor="end">Internal Medicine</text></g><g><rect x="842" y="451.06279526880223" height="20.005862271112846" width="5" fill="#000"></rect><text x="836" y="461.06572640435866" dy="0.35em" text-anchor="end">Obstetrics and Gynecology</text></g><g><rect x="842" y="295.7498534432221" height="35.317769578261334" width="5" fill="#000"></rect><text x="836" y="313.4087382323528" dy="0.35em" text-anchor="end">Pediatrics</text></g><g><rect x="842" y="418.229249284458" height="22.833545984344255" width="5" fill="#000"></rect><text x="836" y="429.6460222766301" dy="0.35em" text-anchor="end">Psychiatry</text></g><g><rect x="842" y="481.0686575399151" height="18.931342460084807" width="5" fill="#000"></rect><text x="836" y="490.5343287699575" dy="0.35em" text-anchor="end">Radiology-Diagnostic</text></g><g><rect x="842" y="187.37059898617196" height="45.32776992310056" width="5" fill="#000"></rect><text x="836" y="210.03448394772224" dy="0.35em" text-anchor="end">Surgery-General</text></g><g><rect x="842" y="129.14445325700888" height="48.22614572916308" width="5" fill="#000"></rect><text x="836" y="153.25752612159042" dy="0.35em" text-anchor="end">Transitional Year</text></g><g><rect x="0" y="215.62915962619414" height="89.9910341735922" width="5" fill="#000"></rect><text x="11" y="260.6246767129902" dy="0.35em" text-anchor="start">asian</text></g><g><rect x="0" y="359.6372288699612" height="33.6211593503225" width="5" fill="#000"></rect><text x="11" y="376.4478085451224" dy="0.35em" text-anchor="start">black</text></g><g><rect x="0" y="403.2583882202837" height="26.749887927169652" width="5" fill="#000"></rect><text x="11" y="416.6333321838685" dy="0.35em" text-anchor="start">hispanic</text></g><g><rect x="0" y="315.6201937997863" height="34.01703507017487" width="5" fill="#000"></rect><text x="11" y="332.62871133487374" dy="0.35em" text-anchor="start">multiple race/ethnicity</text></g><g><rect x="0" y="489.09514121176585" height="0.735197765440148" width="5" fill="#000"></rect><text x="11" y="489.4627400944859" dy="0.35em" text-anchor="start">native american</text></g><g><rect x="0" y="499.830338977206" height="0.16966102279388906" width="5" fill="#000"></rect><text x="11" y="499.91516948860294" dy="0.35em" text-anchor="start">native hawaiian</text></g><g><rect x="0" y="458.5761577985447" height="6.842994586020154" width="5" fill="#000"></rect><text x="11" y="461.9976550915548" dy="0.35em" text-anchor="start">non-citizen or permanent resident</text></g><g><rect x="0" y="440.00827614745333" height="8.567881651091398" width="5" fill="#000"></rect><text x="11" y="444.29221697299903" dy="0.35em" text-anchor="start">other</text></g><g><rect x="0" y="475.4191523845649" height="3.6759888272009675" width="5" fill="#000"></rect><text x="11" y="477.25714679816537" dy="0.35em" text-anchor="start">unknown race/ethnicity</text></g><g><rect x="0" y="1.1368683772161603e-13" height="205.62915962619402" width="5" fill="#000"></rect><text x="11" y="102.81457981309713" dy="0.35em" text-anchor="start">white</text></g></g></g></svg>